<?xml version="1.0" encoding="iso-8859-1"?>
<!-- Uploaded to: SVG Repo, www.svgrepo.com, Generator: SVG Repo Mixer Tools -->
<svg height="800px" width="800px" version="1.1" id="Layer_1" xmlns="http://www.w3.org/2000/svg" xmlns:xlink="http://www.w3.org/1999/xlink" 
	 viewBox="0 0 512 512" xml:space="preserve">
<path style="fill:#11544F;" d="M418.655,512H93.345c-35.702,0-64.749-29.047-64.749-64.749V64.749C28.594,29.047,57.641,0,93.345,0
	h325.31c35.702,0,64.749,29.047,64.749,64.749v382.5C483.404,482.953,454.358,512,418.655,512z M93.345,28.444
	c-20.019,0-36.305,16.287-36.305,36.305v382.5c0,20.019,16.287,36.306,36.305,36.306h325.31c20.019,0,36.305-16.287,36.305-36.306
	v-382.5c0-20.019-16.287-36.305-36.305-36.305H93.345z"/>
<path style="fill:#6AB797;" d="M381.452,160.112H130.548c-13.188,0-23.877-10.691-23.877-23.877v-34.666
	c0-13.188,10.691-23.877,23.877-23.877h250.904c13.188,0,23.877,10.691,23.877,23.877v34.664
	C405.329,149.422,394.639,160.112,381.452,160.112z"/>
<g>
	<path style="fill:#11544F;" d="M381.452,174.334H130.548c-21.007,0-38.099-17.092-38.099-38.099v-34.666
		c0-21.007,17.092-38.099,38.099-38.099h250.904c21.007,0,38.099,17.092,38.099,38.099v34.666
		C419.551,157.242,402.459,174.334,381.452,174.334z M130.548,91.914c-5.323,0-9.655,4.332-9.655,9.655v34.666
		c0,5.323,4.332,9.655,9.655,9.655h250.904c5.323,0,9.655-4.332,9.655-9.655v-34.666c0-5.323-4.332-9.655-9.655-9.655H130.548z"/>
	<path style="fill:#11544F;" d="M157.365,313.52h-38.089c-16.672,0-30.236-13.563-30.236-30.236v-44.837
		c0-16.672,13.563-30.236,30.236-30.236h38.089c16.672,0,30.236,13.563,30.236,30.236v44.837
		C187.6,299.957,174.037,313.52,157.365,313.52z M119.276,236.655c-0.987,0-1.792,0.804-1.792,1.792v44.837
		c0,0.987,0.804,1.792,1.792,1.792h38.089c0.987,0,1.792-0.804,1.792-1.792v-44.837c0-0.987-0.804-1.792-1.792-1.792H119.276z"/>
	<path style="fill:#11544F;" d="M157.365,451.222h-38.089c-16.672,0-30.236-13.563-30.236-30.236v-44.837
		c0-16.674,13.563-30.237,30.236-30.237h38.089c16.672,0,30.236,13.563,30.236,30.237v44.837
		C187.6,437.658,174.037,451.222,157.365,451.222z M119.276,374.357c-0.987,0-1.792,0.804-1.792,1.793v44.837
		c0,0.987,0.804,1.792,1.792,1.792h38.089c0.987,0,1.792-0.804,1.792-1.792V376.15c0-0.988-0.804-1.793-1.792-1.793H119.276z"/>
	<path style="fill:#11544F;" d="M275.044,313.52h-38.087c-16.674,0-30.237-13.563-30.237-30.236v-44.837
		c0-16.672,13.563-30.236,30.237-30.236h38.087c16.674,0,30.237,13.563,30.237,30.236v44.837
		C305.28,299.957,291.717,313.52,275.044,313.52z M236.956,236.655c-0.988,0-1.793,0.804-1.793,1.792v44.837
		c0,0.987,0.804,1.792,1.793,1.792h38.087c0.988,0,1.793-0.804,1.793-1.792v-44.837c0-0.987-0.804-1.792-1.793-1.792H236.956z"/>
	<path style="fill:#11544F;" d="M275.044,451.222h-38.087c-16.674,0-30.237-13.563-30.237-30.236v-44.837
		c0-16.674,13.563-30.237,30.237-30.237h38.087c16.674,0,30.237,13.563,30.237,30.237v44.837
		C305.28,437.658,291.717,451.222,275.044,451.222z M236.956,374.357c-0.988,0-1.793,0.804-1.793,1.793v44.837
		c0,0.987,0.804,1.792,1.793,1.792h38.087c0.988,0,1.793-0.804,1.793-1.792V376.15c0-0.988-0.804-1.793-1.793-1.793H236.956z"/>
</g>
<path style="fill:#6AB797;" d="M392.723,437h-38.089c-8.845,0-16.014-7.169-16.014-16.014V238.447
	c0-8.845,7.169-16.014,16.014-16.014h38.089c8.845,0,16.014,7.169,16.014,16.014v182.54C408.737,429.831,401.567,437,392.723,437z"
	/>
<path style="fill:#11544F;" d="M392.724,451.222h-38.089c-16.672,0-30.236-13.563-30.236-30.236V238.447
	c0-16.672,13.563-30.236,30.236-30.236h38.089c16.672,0,30.236,13.563,30.236,30.236v182.54
	C422.959,437.658,409.395,451.222,392.724,451.222z M354.634,236.655c-0.987,0-1.792,0.804-1.792,1.792v182.54
	c0,0.987,0.804,1.792,1.792,1.792h38.089c0.987,0,1.792-0.804,1.792-1.792v-182.54c0-0.987-0.804-1.792-1.792-1.792H354.634z"/>
</svg>